<mxfile host="Electron" modified="2024-01-31T23:34:09.995Z" agent="Mozilla/5.0 (X11; Linux x86_64) AppleWebKit/537.36 (KHTML, like Gecko) draw.io/22.1.16 Chrome/120.0.6099.109 Electron/28.1.0 Safari/537.36" etag="CSdLPE8R6BBZmuwG9HZs" version="22.1.16" type="device">
  <diagram name="Page-1" id="jveyAOEOmCb2H02hcu3y">
    <mxGraphModel dx="2284" dy="838" grid="1" gridSize="10" guides="1" tooltips="1" connect="1" arrows="1" fold="1" page="1" pageScale="1" pageWidth="850" pageHeight="1100" math="0" shadow="0">
      <root>
        <mxCell id="0" />
        <mxCell id="1" parent="0" />
        <mxCell id="wBWCN8kMZUAngQw1QiMz-3" value="Nodes with Label topology.kubernetes.io/zone=V" style="swimlane;whiteSpace=wrap;html=1;" vertex="1" parent="1">
          <mxGeometry x="-70" y="180" width="370" height="340" as="geometry" />
        </mxCell>
        <mxCell id="wBWCN8kMZUAngQw1QiMz-7" value="Node 1" style="swimlane;whiteSpace=wrap;html=1;" vertex="1" parent="wBWCN8kMZUAngQw1QiMz-3">
          <mxGeometry x="20" y="50" width="160" height="130" as="geometry" />
        </mxCell>
        <mxCell id="wBWCN8kMZUAngQw1QiMz-5" value="Pod&lt;br&gt;security=S1" style="rounded=0;whiteSpace=wrap;html=1;" vertex="1" parent="wBWCN8kMZUAngQw1QiMz-7">
          <mxGeometry x="20" y="40" width="120" height="60" as="geometry" />
        </mxCell>
        <mxCell id="wBWCN8kMZUAngQw1QiMz-10" value="Node 2" style="swimlane;whiteSpace=wrap;html=1;" vertex="1" parent="wBWCN8kMZUAngQw1QiMz-3">
          <mxGeometry x="190" y="50" width="160" height="130" as="geometry" />
        </mxCell>
        <mxCell id="wBWCN8kMZUAngQw1QiMz-11" value="Pod&lt;br&gt;security=S2" style="rounded=0;whiteSpace=wrap;html=1;" vertex="1" parent="wBWCN8kMZUAngQw1QiMz-10">
          <mxGeometry x="20" y="40" width="120" height="60" as="geometry" />
        </mxCell>
        <mxCell id="wBWCN8kMZUAngQw1QiMz-12" value="Node 3" style="swimlane;whiteSpace=wrap;html=1;" vertex="1" parent="wBWCN8kMZUAngQw1QiMz-3">
          <mxGeometry x="20" y="190" width="330" height="130" as="geometry" />
        </mxCell>
        <mxCell id="wBWCN8kMZUAngQw1QiMz-13" value="Pod&lt;br&gt;security=S1" style="rounded=0;whiteSpace=wrap;html=1;" vertex="1" parent="wBWCN8kMZUAngQw1QiMz-12">
          <mxGeometry x="20" y="40" width="120" height="60" as="geometry" />
        </mxCell>
        <mxCell id="wBWCN8kMZUAngQw1QiMz-14" value="Pod&lt;br&gt;security=S2" style="rounded=0;whiteSpace=wrap;html=1;" vertex="1" parent="wBWCN8kMZUAngQw1QiMz-12">
          <mxGeometry x="190" y="40" width="120" height="60" as="geometry" />
        </mxCell>
        <mxCell id="wBWCN8kMZUAngQw1QiMz-4" value="Nodes with Label topology.kubernetes.io/zone=X" style="swimlane;whiteSpace=wrap;html=1;" vertex="1" parent="1">
          <mxGeometry x="330" y="180" width="360" height="340" as="geometry" />
        </mxCell>
        <mxCell id="wBWCN8kMZUAngQw1QiMz-15" value="Node 1" style="swimlane;whiteSpace=wrap;html=1;" vertex="1" parent="wBWCN8kMZUAngQw1QiMz-4">
          <mxGeometry x="20" y="50" width="160" height="130" as="geometry" />
        </mxCell>
        <mxCell id="wBWCN8kMZUAngQw1QiMz-16" value="Pod&lt;br&gt;security=S2" style="rounded=0;whiteSpace=wrap;html=1;" vertex="1" parent="wBWCN8kMZUAngQw1QiMz-15">
          <mxGeometry x="20" y="40" width="120" height="60" as="geometry" />
        </mxCell>
      </root>
    </mxGraphModel>
  </diagram>
</mxfile>
